<mxfile host="Electron" agent="Mozilla/5.0 (X11; Linux x86_64) AppleWebKit/537.36 (KHTML, like Gecko) draw.io/25.0.1 Chrome/128.0.6613.186 Electron/32.2.6 Safari/537.36" version="25.0.1">
  <diagram name="Page-1" id="exrSRZbyWCuLeWy5kGIF">
    <mxGraphModel dx="819" dy="435" grid="1" gridSize="10" guides="1" tooltips="1" connect="1" arrows="1" fold="1" page="1" pageScale="1" pageWidth="1654" pageHeight="2336" math="0" shadow="0">
      <root>
        <mxCell id="0" />
        <mxCell id="1" parent="0" />
        <mxCell id="J2kzF_bCszdrZw01qx1C-28" value="" style="rounded=0;whiteSpace=wrap;html=1;" parent="1" vertex="1">
          <mxGeometry x="340" y="220" width="960" height="390" as="geometry" />
        </mxCell>
        <mxCell id="pN_VlRZfiD1Of6Uu_VtF-1" value="USB Soundcard&lt;div&gt;48 ksps @&amp;nbsp;&lt;span style=&quot;background-color: initial;&quot;&gt;16 bit&lt;/span&gt;&lt;/div&gt;&lt;div&gt;Max 200 mV pk2pk&lt;/div&gt;&lt;div&gt;DC block on input&lt;/div&gt;" style="rounded=0;whiteSpace=wrap;html=1;" parent="1" vertex="1">
          <mxGeometry x="840" y="340" width="120" height="90" as="geometry" />
        </mxCell>
        <mxCell id="pN_VlRZfiD1Of6Uu_VtF-2" value="e.g. https://a.co/d/2Bj9Iyu" style="text;whiteSpace=wrap;" parent="1" vertex="1">
          <mxGeometry x="790" y="430" width="150" height="30" as="geometry" />
        </mxCell>
        <mxCell id="pN_VlRZfiD1Of6Uu_VtF-11" style="edgeStyle=orthogonalEdgeStyle;rounded=0;orthogonalLoop=1;jettySize=auto;html=1;exitX=1;exitY=0.5;exitDx=0;exitDy=0;entryX=0;entryY=0.25;entryDx=0;entryDy=0;" parent="1" source="pN_VlRZfiD1Of6Uu_VtF-9" target="pN_VlRZfiD1Of6Uu_VtF-1" edge="1">
          <mxGeometry relative="1" as="geometry">
            <mxPoint x="800" y="362.5" as="targetPoint" />
            <Array as="points">
              <mxPoint x="770" y="360" />
              <mxPoint x="770" y="362" />
            </Array>
          </mxGeometry>
        </mxCell>
        <mxCell id="pN_VlRZfiD1Of6Uu_VtF-9" value="" style="triangle;whiteSpace=wrap;html=1;" parent="1" vertex="1">
          <mxGeometry x="710" y="340" width="30" height="40" as="geometry" />
        </mxCell>
        <mxCell id="pN_VlRZfiD1Of6Uu_VtF-12" style="edgeStyle=orthogonalEdgeStyle;rounded=0;orthogonalLoop=1;jettySize=auto;html=1;exitX=1;exitY=0.5;exitDx=0;exitDy=0;entryX=0;entryY=0.75;entryDx=0;entryDy=0;" parent="1" source="pN_VlRZfiD1Of6Uu_VtF-10" target="pN_VlRZfiD1Of6Uu_VtF-1" edge="1">
          <mxGeometry relative="1" as="geometry">
            <mxPoint x="800" y="408" as="targetPoint" />
          </mxGeometry>
        </mxCell>
        <mxCell id="pN_VlRZfiD1Of6Uu_VtF-10" value="" style="triangle;whiteSpace=wrap;html=1;" parent="1" vertex="1">
          <mxGeometry x="710" y="390" width="30" height="40" as="geometry" />
        </mxCell>
        <mxCell id="pN_VlRZfiD1Of6Uu_VtF-13" value="+&lt;div&gt;-&lt;/div&gt;" style="text;html=1;align=center;verticalAlign=middle;whiteSpace=wrap;rounded=0;" parent="1" vertex="1">
          <mxGeometry x="710" y="345" width="10" height="30" as="geometry" />
        </mxCell>
        <mxCell id="pN_VlRZfiD1Of6Uu_VtF-14" value="+&lt;div&gt;-&lt;/div&gt;" style="text;html=1;align=center;verticalAlign=middle;whiteSpace=wrap;rounded=0;" parent="1" vertex="1">
          <mxGeometry x="710" y="395" width="10" height="30" as="geometry" />
        </mxCell>
        <mxCell id="pN_VlRZfiD1Of6Uu_VtF-15" value="Differential amp&lt;div&gt;MC33078&lt;/div&gt;" style="text;html=1;align=center;verticalAlign=middle;whiteSpace=wrap;rounded=0;" parent="1" vertex="1">
          <mxGeometry x="675" y="280" width="100" height="30" as="geometry" />
        </mxCell>
        <mxCell id="pN_VlRZfiD1Of6Uu_VtF-16" value="" style="rounded=0;whiteSpace=wrap;html=1;" parent="1" vertex="1">
          <mxGeometry x="590" y="340" width="80" height="90" as="geometry" />
        </mxCell>
        <mxCell id="pN_VlRZfiD1Of6Uu_VtF-20" style="edgeStyle=orthogonalEdgeStyle;rounded=0;orthogonalLoop=1;jettySize=auto;html=1;exitX=1;exitY=0.25;exitDx=0;exitDy=0;entryX=0;entryY=0.25;entryDx=0;entryDy=0;" parent="1" source="pN_VlRZfiD1Of6Uu_VtF-17" target="pN_VlRZfiD1Of6Uu_VtF-13" edge="1">
          <mxGeometry relative="1" as="geometry" />
        </mxCell>
        <mxCell id="pN_VlRZfiD1Of6Uu_VtF-17" value="I+&lt;div&gt;I-&lt;/div&gt;" style="text;html=1;align=center;verticalAlign=middle;whiteSpace=wrap;rounded=0;" parent="1" vertex="1">
          <mxGeometry x="650" y="345" width="10" height="30" as="geometry" />
        </mxCell>
        <mxCell id="pN_VlRZfiD1Of6Uu_VtF-22" style="edgeStyle=orthogonalEdgeStyle;rounded=0;orthogonalLoop=1;jettySize=auto;html=1;exitX=1;exitY=0.25;exitDx=0;exitDy=0;entryX=0;entryY=0.25;entryDx=0;entryDy=0;" parent="1" source="pN_VlRZfiD1Of6Uu_VtF-18" target="pN_VlRZfiD1Of6Uu_VtF-14" edge="1">
          <mxGeometry relative="1" as="geometry" />
        </mxCell>
        <mxCell id="pN_VlRZfiD1Of6Uu_VtF-23" style="edgeStyle=orthogonalEdgeStyle;rounded=0;orthogonalLoop=1;jettySize=auto;html=1;exitX=1;exitY=0.75;exitDx=0;exitDy=0;entryX=0;entryY=0.75;entryDx=0;entryDy=0;" parent="1" source="pN_VlRZfiD1Of6Uu_VtF-18" target="pN_VlRZfiD1Of6Uu_VtF-14" edge="1">
          <mxGeometry relative="1" as="geometry" />
        </mxCell>
        <mxCell id="pN_VlRZfiD1Of6Uu_VtF-18" value="Q+&lt;div&gt;Q-&lt;/div&gt;" style="text;html=1;align=center;verticalAlign=middle;whiteSpace=wrap;rounded=0;" parent="1" vertex="1">
          <mxGeometry x="651" y="395" width="10" height="30" as="geometry" />
        </mxCell>
        <mxCell id="pN_VlRZfiD1Of6Uu_VtF-21" style="edgeStyle=orthogonalEdgeStyle;rounded=0;orthogonalLoop=1;jettySize=auto;html=1;exitX=1;exitY=0.75;exitDx=0;exitDy=0;entryX=-0.109;entryY=0.744;entryDx=0;entryDy=0;entryPerimeter=0;" parent="1" source="pN_VlRZfiD1Of6Uu_VtF-17" target="pN_VlRZfiD1Of6Uu_VtF-13" edge="1">
          <mxGeometry relative="1" as="geometry" />
        </mxCell>
        <mxCell id="pN_VlRZfiD1Of6Uu_VtF-25" style="edgeStyle=orthogonalEdgeStyle;rounded=0;orthogonalLoop=1;jettySize=auto;html=1;exitX=0.25;exitY=0;exitDx=0;exitDy=0;entryX=0.25;entryY=1;entryDx=0;entryDy=0;" parent="1" source="pN_VlRZfiD1Of6Uu_VtF-24" target="pN_VlRZfiD1Of6Uu_VtF-16" edge="1">
          <mxGeometry relative="1" as="geometry" />
        </mxCell>
        <mxCell id="pN_VlRZfiD1Of6Uu_VtF-26" style="edgeStyle=orthogonalEdgeStyle;rounded=0;orthogonalLoop=1;jettySize=auto;html=1;exitX=0.75;exitY=0;exitDx=0;exitDy=0;entryX=0.75;entryY=1;entryDx=0;entryDy=0;" parent="1" source="pN_VlRZfiD1Of6Uu_VtF-24" target="pN_VlRZfiD1Of6Uu_VtF-16" edge="1">
          <mxGeometry relative="1" as="geometry" />
        </mxCell>
        <mxCell id="pN_VlRZfiD1Of6Uu_VtF-24" value="" style="rounded=0;whiteSpace=wrap;html=1;" parent="1" vertex="1">
          <mxGeometry x="590" y="490" width="80" height="60" as="geometry" />
        </mxCell>
        <mxCell id="pN_VlRZfiD1Of6Uu_VtF-27" value="&lt;span style=&quot;background-color: initial;&quot;&gt;CLK0&lt;/span&gt;" style="text;html=1;align=center;verticalAlign=middle;whiteSpace=wrap;rounded=0;" parent="1" vertex="1">
          <mxGeometry x="589" y="460" width="10" height="30" as="geometry" />
        </mxCell>
        <mxCell id="pN_VlRZfiD1Of6Uu_VtF-28" value="CLK1" style="text;html=1;align=center;verticalAlign=middle;whiteSpace=wrap;rounded=0;" parent="1" vertex="1">
          <mxGeometry x="661" y="460" width="10" height="30" as="geometry" />
        </mxCell>
        <mxCell id="pN_VlRZfiD1Of6Uu_VtF-29" value="Mixer&lt;div&gt;74CBTLV3253&lt;/div&gt;" style="text;html=1;align=center;verticalAlign=middle;whiteSpace=wrap;rounded=0;" parent="1" vertex="1">
          <mxGeometry x="580" y="280" width="100" height="30" as="geometry" />
        </mxCell>
        <mxCell id="pN_VlRZfiD1Of6Uu_VtF-31" style="edgeStyle=orthogonalEdgeStyle;rounded=0;orthogonalLoop=1;jettySize=auto;html=1;exitX=1;exitY=0.5;exitDx=0;exitDy=0;entryX=0;entryY=0.5;entryDx=0;entryDy=0;" parent="1" source="pN_VlRZfiD1Of6Uu_VtF-30" target="pN_VlRZfiD1Of6Uu_VtF-16" edge="1">
          <mxGeometry relative="1" as="geometry" />
        </mxCell>
        <mxCell id="pN_VlRZfiD1Of6Uu_VtF-30" value="" style="triangle;whiteSpace=wrap;html=1;" parent="1" vertex="1">
          <mxGeometry x="470" y="345" width="60" height="80" as="geometry" />
        </mxCell>
        <mxCell id="pN_VlRZfiD1Of6Uu_VtF-32" value="RF amp&lt;div&gt;GALI-S66+&lt;/div&gt;" style="text;html=1;align=center;verticalAlign=middle;whiteSpace=wrap;rounded=0;" parent="1" vertex="1">
          <mxGeometry x="450" y="280" width="100" height="30" as="geometry" />
        </mxCell>
        <mxCell id="pN_VlRZfiD1Of6Uu_VtF-34" style="edgeStyle=orthogonalEdgeStyle;rounded=0;orthogonalLoop=1;jettySize=auto;html=1;exitX=1;exitY=0.5;exitDx=0;exitDy=0;entryX=0;entryY=0.5;entryDx=0;entryDy=0;" parent="1" source="pN_VlRZfiD1Of6Uu_VtF-33" target="pN_VlRZfiD1Of6Uu_VtF-30" edge="1">
          <mxGeometry relative="1" as="geometry" />
        </mxCell>
        <mxCell id="pN_VlRZfiD1Of6Uu_VtF-33" value="" style="ellipse;whiteSpace=wrap;html=1;aspect=fixed;" parent="1" vertex="1">
          <mxGeometry x="410" y="375" width="20" height="20" as="geometry" />
        </mxCell>
        <mxCell id="pN_VlRZfiD1Of6Uu_VtF-35" value="RF in" style="text;html=1;align=center;verticalAlign=middle;whiteSpace=wrap;rounded=0;" parent="1" vertex="1">
          <mxGeometry x="390" y="280" width="60" height="30" as="geometry" />
        </mxCell>
        <mxCell id="pN_VlRZfiD1Of6Uu_VtF-36" value="S9 = 50 uV into 50 Ohm impedance = -73 dBm" style="text;html=1;align=center;verticalAlign=middle;whiteSpace=wrap;rounded=0;strokeColor=default;" parent="1" vertex="1">
          <mxGeometry x="360" y="520" width="160" height="30" as="geometry" />
        </mxCell>
        <mxCell id="pN_VlRZfiD1Of6Uu_VtF-38" value="I2C" style="edgeStyle=orthogonalEdgeStyle;rounded=0;orthogonalLoop=1;jettySize=auto;html=1;exitX=0;exitY=0.5;exitDx=0;exitDy=0;entryX=1;entryY=0.5;entryDx=0;entryDy=0;endArrow=none;endFill=0;strokeColor=#33FF33;strokeWidth=3;" parent="1" source="pN_VlRZfiD1Of6Uu_VtF-37" target="pN_VlRZfiD1Of6Uu_VtF-24" edge="1">
          <mxGeometry relative="1" as="geometry" />
        </mxCell>
        <mxCell id="pN_VlRZfiD1Of6Uu_VtF-39" value="USB" style="edgeStyle=orthogonalEdgeStyle;rounded=0;orthogonalLoop=1;jettySize=auto;html=1;exitX=1;exitY=0.5;exitDx=0;exitDy=0;entryX=-0.007;entryY=0.818;entryDx=0;entryDy=0;entryPerimeter=0;strokeWidth=3;endArrow=none;endFill=0;" parent="1" source="pN_VlRZfiD1Of6Uu_VtF-37" edge="1">
          <mxGeometry relative="1" as="geometry">
            <mxPoint x="1008.46" y="519.96" as="targetPoint" />
          </mxGeometry>
        </mxCell>
        <mxCell id="pN_VlRZfiD1Of6Uu_VtF-37" value="Raspberry pico" style="rounded=0;whiteSpace=wrap;html=1;" parent="1" vertex="1">
          <mxGeometry x="800" y="490" width="120" height="60" as="geometry" />
        </mxCell>
        <mxCell id="pN_VlRZfiD1Of6Uu_VtF-41" value="USB" style="edgeStyle=orthogonalEdgeStyle;rounded=0;orthogonalLoop=1;jettySize=auto;html=1;exitX=1;exitY=0.5;exitDx=0;exitDy=0;endArrow=none;endFill=0;strokeWidth=3;" parent="1" source="pN_VlRZfiD1Of6Uu_VtF-1" edge="1">
          <mxGeometry relative="1" as="geometry">
            <mxPoint x="1010" y="385" as="targetPoint" />
          </mxGeometry>
        </mxCell>
        <mxCell id="J2kzF_bCszdrZw01qx1C-1" value="&lt;font&gt;+21dB&lt;/font&gt;" style="text;html=1;align=center;verticalAlign=middle;whiteSpace=wrap;rounded=0;fontColor=#000000;" parent="1" vertex="1">
          <mxGeometry x="460" y="370" width="60" height="30" as="geometry" />
        </mxCell>
        <mxCell id="J2kzF_bCszdrZw01qx1C-2" value="&lt;font&gt;-2dB&lt;/font&gt;" style="text;html=1;align=center;verticalAlign=middle;whiteSpace=wrap;rounded=0;fontColor=#000000;" parent="1" vertex="1">
          <mxGeometry x="590" y="370" width="60" height="30" as="geometry" />
        </mxCell>
        <mxCell id="J2kzF_bCszdrZw01qx1C-3" value="&lt;font&gt;20x&lt;/font&gt;" style="text;html=1;align=center;verticalAlign=middle;whiteSpace=wrap;rounded=0;fontColor=#000000;" parent="1" vertex="1">
          <mxGeometry x="705" y="370" width="50" height="30" as="geometry" />
        </mxCell>
        <mxCell id="J2kzF_bCszdrZw01qx1C-4" value="S: 12dB over S9&lt;div&gt;P: -61 dBm&lt;/div&gt;&lt;div&gt;Vrms: 0.2&lt;span style=&quot;background-color: initial;&quot;&gt;&amp;nbsp;mV&lt;/span&gt;&lt;/div&gt;" style="text;html=1;align=center;verticalAlign=middle;whiteSpace=wrap;rounded=0;fontColor=#FF0000;" parent="1" vertex="1">
          <mxGeometry x="360" y="435" width="120" height="30" as="geometry" />
        </mxCell>
        <mxCell id="J2kzF_bCszdrZw01qx1C-5" value="&lt;div&gt;P: -40 dBm&lt;/div&gt;&lt;div&gt;Vrms: 2.2&lt;span style=&quot;background-color: initial;&quot;&gt;&amp;nbsp;mV&lt;/span&gt;&lt;/div&gt;" style="text;html=1;align=center;verticalAlign=middle;whiteSpace=wrap;rounded=0;fontColor=#FF0000;" parent="1" vertex="1">
          <mxGeometry x="479" y="435" width="120" height="30" as="geometry" />
        </mxCell>
        <mxCell id="J2kzF_bCszdrZw01qx1C-6" value="&lt;div&gt;P: -42 dBm&lt;/div&gt;&lt;div&gt;Vrms: 1.8&lt;span style=&quot;background-color: initial;&quot;&gt;&amp;nbsp;mV&lt;/span&gt;&lt;/div&gt;" style="text;html=1;align=center;verticalAlign=middle;whiteSpace=wrap;rounded=0;fontColor=#FF0000;" parent="1" vertex="1">
          <mxGeometry x="630" y="430" width="120" height="30" as="geometry" />
        </mxCell>
        <mxCell id="J2kzF_bCszdrZw01qx1C-7" value="&lt;div&gt;&lt;span style=&quot;background-color: initial;&quot;&gt;Vrms: 35.5&lt;/span&gt;&lt;span style=&quot;background-color: initial;&quot;&gt;&amp;nbsp;mV&lt;/span&gt;&lt;br&gt;&lt;/div&gt;&lt;div&gt;&lt;span style=&quot;background-color: initial;&quot;&gt;Vp2p: 100 mV&lt;/span&gt;&lt;/div&gt;" style="text;html=1;align=center;verticalAlign=middle;whiteSpace=wrap;rounded=0;fontColor=#FF0000;" parent="1" vertex="1">
          <mxGeometry x="685" y="465" width="120" height="30" as="geometry" />
        </mxCell>
        <mxCell id="J2kzF_bCszdrZw01qx1C-8" value="" style="verticalLabelPosition=bottom;html=1;verticalAlign=top;align=center;strokeColor=none;fillColor=#000000;shape=mxgraph.azure.laptop;pointerEvents=1;" parent="1" vertex="1">
          <mxGeometry x="980" y="365" width="310" height="215" as="geometry" />
        </mxCell>
        <mxCell id="J2kzF_bCszdrZw01qx1C-9" value="3.3V 22mA" style="text;html=1;align=center;verticalAlign=middle;whiteSpace=wrap;rounded=0;strokeColor=#FF33FF;strokeWidth=2;fontSize=8;fillColor=default;" parent="1" vertex="1">
          <mxGeometry x="590" y="530" width="50" height="20" as="geometry" />
        </mxCell>
        <mxCell id="J2kzF_bCszdrZw01qx1C-10" value="quisk" style="text;html=1;align=center;verticalAlign=middle;whiteSpace=wrap;rounded=0;fontSize=20;" parent="1" vertex="1">
          <mxGeometry x="1105" y="435" width="60" height="30" as="geometry" />
        </mxCell>
        <mxCell id="J2kzF_bCszdrZw01qx1C-11" value="3.3V" style="text;html=1;align=center;verticalAlign=middle;whiteSpace=wrap;rounded=0;strokeColor=#FF33FF;strokeWidth=2;fontSize=8;fillColor=default;" parent="1" vertex="1">
          <mxGeometry x="590" y="340" width="30" height="10" as="geometry" />
        </mxCell>
        <mxCell id="J2kzF_bCszdrZw01qx1C-12" value="&lt;div&gt;LO&lt;/div&gt;Si5351" style="text;html=1;align=center;verticalAlign=middle;whiteSpace=wrap;rounded=0;" parent="1" vertex="1">
          <mxGeometry x="601" y="550" width="60" height="30" as="geometry" />
        </mxCell>
        <mxCell id="J2kzF_bCszdrZw01qx1C-21" style="edgeStyle=orthogonalEdgeStyle;rounded=0;orthogonalLoop=1;jettySize=auto;html=1;exitX=0.5;exitY=1;exitDx=0;exitDy=0;strokeColor=#FF0000;strokeWidth=4;" parent="1" source="J2kzF_bCszdrZw01qx1C-18" edge="1">
          <mxGeometry relative="1" as="geometry">
            <mxPoint x="845" y="590" as="targetPoint" />
          </mxGeometry>
        </mxCell>
        <mxCell id="J2kzF_bCszdrZw01qx1C-18" value="5V supply" style="text;html=1;align=center;verticalAlign=middle;whiteSpace=wrap;rounded=0;strokeColor=#FF0000;strokeWidth=2;fontSize=8;fillColor=default;" parent="1" vertex="1">
          <mxGeometry x="820" y="550" width="50" height="10" as="geometry" />
        </mxCell>
        <mxCell id="J2kzF_bCszdrZw01qx1C-19" value="3.3V supply" style="text;html=1;align=center;verticalAlign=middle;whiteSpace=wrap;rounded=0;strokeColor=#FF33FF;strokeWidth=2;fontSize=8;fillColor=default;" parent="1" vertex="1">
          <mxGeometry x="870" y="550" width="50" height="10" as="geometry" />
        </mxCell>
        <mxCell id="J2kzF_bCszdrZw01qx1C-22" style="edgeStyle=orthogonalEdgeStyle;rounded=0;orthogonalLoop=1;jettySize=auto;html=1;exitX=0.5;exitY=1;exitDx=0;exitDy=0;strokeColor=#FF0000;strokeWidth=4;" parent="1" edge="1">
          <mxGeometry relative="1" as="geometry">
            <mxPoint x="510" y="375" as="targetPoint" />
            <mxPoint x="510" y="345" as="sourcePoint" />
          </mxGeometry>
        </mxCell>
        <mxCell id="J2kzF_bCszdrZw01qx1C-23" style="edgeStyle=orthogonalEdgeStyle;rounded=0;orthogonalLoop=1;jettySize=auto;html=1;exitX=0.5;exitY=1;exitDx=0;exitDy=0;strokeColor=#FF0000;strokeWidth=4;" parent="1" edge="1">
          <mxGeometry relative="1" as="geometry">
            <mxPoint x="729.66" y="360" as="targetPoint" />
            <mxPoint x="729.66" y="330" as="sourcePoint" />
          </mxGeometry>
        </mxCell>
        <mxCell id="J2kzF_bCszdrZw01qx1C-14" value="5V 16mA" style="text;html=1;align=center;verticalAlign=middle;whiteSpace=wrap;rounded=0;strokeColor=#FF0000;strokeWidth=2;fontSize=8;fillColor=default;" parent="1" vertex="1">
          <mxGeometry x="490" y="340" width="40" height="10" as="geometry" />
        </mxCell>
        <mxCell id="J2kzF_bCszdrZw01qx1C-13" value="5V" style="text;html=1;align=center;verticalAlign=middle;whiteSpace=wrap;rounded=0;strokeColor=#FF0000;strokeWidth=2;fillColor=default;fontSize=8;" parent="1" vertex="1">
          <mxGeometry x="720" y="320" width="20" height="10" as="geometry" />
        </mxCell>
        <mxCell id="J2kzF_bCszdrZw01qx1C-24" style="edgeStyle=orthogonalEdgeStyle;rounded=0;orthogonalLoop=1;jettySize=auto;html=1;exitX=0.5;exitY=1;exitDx=0;exitDy=0;strokeColor=#FF33FF;strokeWidth=4;" parent="1" edge="1">
          <mxGeometry relative="1" as="geometry">
            <mxPoint x="894.66" y="590" as="targetPoint" />
            <mxPoint x="894.66" y="560" as="sourcePoint" />
          </mxGeometry>
        </mxCell>
        <mxCell id="J2kzF_bCszdrZw01qx1C-25" style="edgeStyle=orthogonalEdgeStyle;rounded=0;orthogonalLoop=1;jettySize=auto;html=1;exitX=0.5;exitY=1;exitDx=0;exitDy=0;strokeColor=#FF33FF;strokeWidth=4;" parent="1" edge="1">
          <mxGeometry relative="1" as="geometry">
            <mxPoint x="600" y="550" as="targetPoint" />
            <mxPoint x="600" y="580" as="sourcePoint" />
          </mxGeometry>
        </mxCell>
        <mxCell id="J2kzF_bCszdrZw01qx1C-26" style="edgeStyle=orthogonalEdgeStyle;rounded=0;orthogonalLoop=1;jettySize=auto;html=1;exitX=0.5;exitY=1;exitDx=0;exitDy=0;strokeColor=#FF33FF;strokeWidth=4;" parent="1" edge="1">
          <mxGeometry relative="1" as="geometry">
            <mxPoint x="604.8" y="340" as="targetPoint" />
            <mxPoint x="604.8" y="310" as="sourcePoint" />
          </mxGeometry>
        </mxCell>
        <mxCell id="J2kzF_bCszdrZw01qx1C-27" value="" style="pointerEvents=1;verticalLabelPosition=bottom;shadow=0;dashed=0;align=center;html=1;verticalAlign=top;shape=mxgraph.electrical.waveforms.sine_wave;" parent="1" vertex="1">
          <mxGeometry x="615" y="493.82" width="30" height="26.18" as="geometry" />
        </mxCell>
        <mxCell id="J2kzF_bCszdrZw01qx1C-29" value="&lt;font style=&quot;font-size: 14px;&quot;&gt;&lt;b&gt;VMS Makers SDR&lt;/b&gt;&lt;/font&gt;&lt;div&gt;12 DEC 2024&lt;/div&gt;&lt;div&gt;V2&lt;/div&gt;" style="text;html=1;align=center;verticalAlign=middle;whiteSpace=wrap;rounded=0;" parent="1" vertex="1">
          <mxGeometry x="1050" y="240" width="180" height="50" as="geometry" />
        </mxCell>
        <mxCell id="UrLYCEJecuZ1edr53eVs-6" value="" style="group" parent="1" vertex="1" connectable="0">
          <mxGeometry x="760" y="340" width="45" height="36.91" as="geometry" />
        </mxCell>
        <mxCell id="UrLYCEJecuZ1edr53eVs-5" value="" style="rounded=0;whiteSpace=wrap;html=1;" parent="UrLYCEJecuZ1edr53eVs-6" vertex="1">
          <mxGeometry width="45" height="36.91" as="geometry" />
        </mxCell>
        <mxCell id="UrLYCEJecuZ1edr53eVs-1" value="" style="pointerEvents=1;verticalLabelPosition=bottom;shadow=0;dashed=0;align=center;html=1;verticalAlign=top;shape=mxgraph.electrical.waveforms.sine_wave;" parent="UrLYCEJecuZ1edr53eVs-6" vertex="1">
          <mxGeometry x="7.5" y="7.280000000000001" width="30" height="6.18" as="geometry" />
        </mxCell>
        <mxCell id="UrLYCEJecuZ1edr53eVs-2" value="" style="pointerEvents=1;verticalLabelPosition=bottom;shadow=0;dashed=0;align=center;html=1;verticalAlign=top;shape=mxgraph.electrical.waveforms.sine_wave;" parent="UrLYCEJecuZ1edr53eVs-6" vertex="1">
          <mxGeometry x="7.5" y="17.28" width="30" height="6.18" as="geometry" />
        </mxCell>
        <mxCell id="UrLYCEJecuZ1edr53eVs-3" value="" style="pointerEvents=1;verticalLabelPosition=bottom;shadow=0;dashed=0;align=center;html=1;verticalAlign=top;shape=mxgraph.electrical.waveforms.sine_wave;" parent="UrLYCEJecuZ1edr53eVs-6" vertex="1">
          <mxGeometry x="7.5" y="27.28" width="30" height="6.18" as="geometry" />
        </mxCell>
        <mxCell id="UrLYCEJecuZ1edr53eVs-4" value="" style="endArrow=none;html=1;rounded=0;exitX=0.191;exitY=0.846;exitDx=0;exitDy=0;exitPerimeter=0;entryX=0.7;entryY=0.049;entryDx=0;entryDy=0;entryPerimeter=0;" parent="UrLYCEJecuZ1edr53eVs-6" source="UrLYCEJecuZ1edr53eVs-2" target="UrLYCEJecuZ1edr53eVs-1" edge="1">
          <mxGeometry width="50" height="50" relative="1" as="geometry">
            <mxPoint x="-17.5" y="53.46000000000001" as="sourcePoint" />
            <mxPoint x="32.5" y="3.460000000000008" as="targetPoint" />
          </mxGeometry>
        </mxCell>
        <mxCell id="UrLYCEJecuZ1edr53eVs-9" value="" style="group" parent="1" vertex="1" connectable="0">
          <mxGeometry x="760" y="390" width="45" height="36.91" as="geometry" />
        </mxCell>
        <mxCell id="UrLYCEJecuZ1edr53eVs-10" value="" style="rounded=0;whiteSpace=wrap;html=1;" parent="UrLYCEJecuZ1edr53eVs-9" vertex="1">
          <mxGeometry width="45" height="36.91" as="geometry" />
        </mxCell>
        <mxCell id="UrLYCEJecuZ1edr53eVs-11" value="" style="pointerEvents=1;verticalLabelPosition=bottom;shadow=0;dashed=0;align=center;html=1;verticalAlign=top;shape=mxgraph.electrical.waveforms.sine_wave;" parent="UrLYCEJecuZ1edr53eVs-9" vertex="1">
          <mxGeometry x="7.5" y="7.280000000000001" width="30" height="6.18" as="geometry" />
        </mxCell>
        <mxCell id="UrLYCEJecuZ1edr53eVs-12" value="" style="pointerEvents=1;verticalLabelPosition=bottom;shadow=0;dashed=0;align=center;html=1;verticalAlign=top;shape=mxgraph.electrical.waveforms.sine_wave;" parent="UrLYCEJecuZ1edr53eVs-9" vertex="1">
          <mxGeometry x="7.5" y="17.28" width="30" height="6.18" as="geometry" />
        </mxCell>
        <mxCell id="UrLYCEJecuZ1edr53eVs-13" value="" style="pointerEvents=1;verticalLabelPosition=bottom;shadow=0;dashed=0;align=center;html=1;verticalAlign=top;shape=mxgraph.electrical.waveforms.sine_wave;" parent="UrLYCEJecuZ1edr53eVs-9" vertex="1">
          <mxGeometry x="7.5" y="27.28" width="30" height="6.18" as="geometry" />
        </mxCell>
        <mxCell id="UrLYCEJecuZ1edr53eVs-14" value="" style="endArrow=none;html=1;rounded=0;exitX=0.191;exitY=0.846;exitDx=0;exitDy=0;exitPerimeter=0;entryX=0.7;entryY=0.049;entryDx=0;entryDy=0;entryPerimeter=0;" parent="UrLYCEJecuZ1edr53eVs-9" source="UrLYCEJecuZ1edr53eVs-12" target="UrLYCEJecuZ1edr53eVs-11" edge="1">
          <mxGeometry width="50" height="50" relative="1" as="geometry">
            <mxPoint x="-17.5" y="53.46000000000001" as="sourcePoint" />
            <mxPoint x="32.5" y="3.460000000000008" as="targetPoint" />
          </mxGeometry>
        </mxCell>
        <mxCell id="UrLYCEJecuZ1edr53eVs-15" value="LPF" style="text;html=1;align=center;verticalAlign=middle;whiteSpace=wrap;rounded=0;" parent="1" vertex="1">
          <mxGeometry x="760" y="310" width="50" height="20" as="geometry" />
        </mxCell>
      </root>
    </mxGraphModel>
  </diagram>
</mxfile>
